<svg width="308" height="307" viewBox="0 0 308 307" fill="none" xmlns="http://www.w3.org/2000/svg">
<g filter="url(#filter0_d_28_7)">
<path d="M53.5716 245.02C41.4202 229.921 28.908 215.93 18.1548 200.628C-6.79635 165.121 2.00017 119.021 38.5431 96.4042C86.5863 66.6702 134.958 37.454 183.86 9.2523C227.447 -15.8841 279.14 12.8169 285.735 63.7442C290.505 100.575 296.775 137.211 302.904 173.84C307.88 203.576 295.728 233.319 270.135 248.11C243.427 263.544 216.046 277.834 187.677 289.762C144.212 308.038 105.504 298.727 71.7415 265.998C65.3015 259.756 59.8938 252.383 53.5716 245.02ZM286.805 191.857C287.508 187.472 287.778 183.094 287.046 178.666C280.987 142.016 274.954 105.361 268.926 68.7057C267.594 60.6093 266.188 52.5579 262.26 45.2302C248.899 20.307 218.666 10.3534 194.01 23.3788C181.756 29.8524 170.041 37.4146 158.127 44.563C122.37 66.0169 86.4169 87.1357 50.9547 109.095C17.6264 129.734 12.5436 166.465 37.9491 196.774C48.9674 209.919 59.9275 223.122 70.6325 236.537C77.0584 244.59 83.0925 253.021 91.2551 259.311C121.206 282.389 153.445 285.783 187.274 269.786C210.101 258.992 232.491 247.219 255.081 235.891C272.495 227.159 283.493 213.372 286.805 191.857Z" fill="url(#paint0_linear_28_7)" fill-opacity="0.92" shape-rendering="crispEdges"/>
<path d="M53.9562 244.7C50.1771 240.004 46.3682 235.422 42.5909 230.877C34.2022 220.784 25.9693 210.879 18.5639 200.34C-6.22766 165.06 2.51629 119.289 38.8063 96.8293C86.8464 67.0972 135.213 37.8838 184.11 9.68544C227.35 -15.2508 278.684 13.1902 285.239 63.8085C289.613 97.5837 295.248 131.194 300.878 164.775C301.39 167.825 301.901 170.874 302.411 173.923C307.357 203.48 295.275 233.003 269.885 247.677C243.189 263.105 215.827 277.383 187.483 289.301C165.831 298.405 145.392 300.628 126.175 296.518C106.956 292.407 88.9194 281.953 72.0895 265.639C67.7329 261.416 63.8633 256.688 59.8391 251.771C57.9354 249.445 55.9971 247.077 53.9562 244.7ZM287.299 191.934C288.007 187.52 288.283 183.084 287.539 178.584C281.481 141.934 275.447 105.28 269.419 68.6245C268.089 60.537 266.674 52.4052 262.701 44.9939C249.217 19.8418 218.688 9.77588 193.776 22.9367C184.867 27.6436 176.236 32.9286 167.622 38.203C164.373 40.1921 161.127 42.1797 157.87 44.1343C147.679 50.2484 137.472 56.3359 127.264 62.4238C101.659 77.6946 76.0486 92.9681 50.6914 108.67C33.9209 119.055 24.2173 133.518 21.9319 149.236C19.647 164.952 24.7881 181.851 37.5659 197.095C48.5834 210.239 59.5405 223.438 70.2416 236.849C71.2209 238.076 72.1927 239.314 73.1659 240.554C78.5543 247.421 83.9839 254.339 90.95 259.707C105.986 271.293 121.619 277.954 137.757 279.699C153.895 281.444 170.504 278.269 187.488 270.238C203.176 262.82 218.663 254.936 234.142 247.057C241.192 243.469 248.24 239.881 255.305 236.338C272.858 227.536 283.962 213.613 287.299 191.934Z" stroke="black" shape-rendering="crispEdges"/>
</g>
<defs>
<filter id="filter0_d_28_7" x="0" y="0" width="308" height="307" filterUnits="userSpaceOnUse" color-interpolation-filters="sRGB">
<feFlood flood-opacity="0" result="BackgroundImageFix"/>
<feColorMatrix in="SourceAlpha" type="matrix" values="0 0 0 0 0 0 0 0 0 0 0 0 0 0 0 0 0 0 127 0" result="hardAlpha"/>
<feOffset dy="4"/>
<feGaussianBlur stdDeviation="2"/>
<feComposite in2="hardAlpha" operator="out"/>
<feColorMatrix type="matrix" values="0 0 0 0 0 0 0 0 0 0 0 0 0 0 0 0 0 0 0.25 0"/>
<feBlend mode="normal" in2="BackgroundImageFix" result="effect1_dropShadow_28_7"/>
<feBlend mode="normal" in="SourceGraphic" in2="effect1_dropShadow_28_7" result="shape"/>
</filter>
<linearGradient id="paint0_linear_28_7" x1="154" y1="0" x2="154" y2="299" gradientUnits="userSpaceOnUse">
<stop stop-color="#2C9DDD"/>
<stop offset="1" stop-color="#BD00FF"/>
</linearGradient>
</defs>
</svg>
